<svg width="128" height="128" viewBox="0 0 128 128" fill="none" xmlns="http://www.w3.org/2000/svg">
  <defs>
    <linearGradient id="bg" x1="14" y1="10" x2="114" y2="118" gradientUnits="userSpaceOnUse">
      <stop stop-color="#0E4AA3"/>
      <stop offset="1" stop-color="#2A9BFF"/>
    </linearGradient>
    <linearGradient id="glow" x1="30" y1="22" x2="72" y2="58" gradientUnits="userSpaceOnUse">
      <stop stop-color="#A8D7FF" stop-opacity="0.8"/>
      <stop offset="1" stop-color="#A8D7FF" stop-opacity="0"/>
    </linearGradient>
  </defs>

  <rect x="8" y="8" width="112" height="112" rx="28" fill="url(#bg)"/>
  <circle cx="40" cy="34" r="24" fill="url(#glow)"/>

  <path d="M26 38C26 29.1634 33.1634 22 42 22H86C94.8366 22 102 29.1634 102 38V76C102 84.8366 94.8366 92 86 92H58L44 104V92H42C33.1634 92 26 84.8366 26 76V38Z" fill="white"/>

  <rect x="41" y="61" width="12" height="19" rx="4.5" fill="#9ED5FF"/>
  <rect x="58" y="50" width="12" height="30" rx="4.5" fill="#5AB3FF"/>
  <rect x="75" y="39" width="12" height="41" rx="4.5" fill="#0E4AA3"/>

  <path d="M41 50L57 43L68 47L82 34" stroke="#0E4AA3" stroke-width="6" stroke-linecap="round" stroke-linejoin="round"/>
  <circle cx="82" cy="34" r="5.5" fill="#0E4AA3"/>

  <path d="M92 23L94.7 28.5L100.8 29.4L96.4 33.7L97.4 39.8L92 36.9L86.6 39.8L87.6 33.7L83.2 29.4L89.3 28.5L92 23Z" fill="#FFD556"/>
</svg>
